<!DOCTYPE svg PUBLIC "-//W3C//DTD SVG 1.1//EN" "http://www.w3.org/Graphics/SVG/1.1/DTD/svg11.dtd">
<!-- Uploaded to: SVG Repo, www.svgrepo.com, Transformed by: SVG Repo Mixer Tools -->
<svg width="128px" height="128px" viewBox="0 0 24.00 24.00" fill="none" xmlns="http://www.w3.org/2000/svg" stroke="#a3a3a3" stroke-width="0.00024000000000000003">
<g id="SVGRepo_bgCarrier" stroke-width="0"/>
<g id="SVGRepo_tracerCarrier" stroke-linecap="round" stroke-linejoin="round" stroke="#CCCCCC" stroke-width="0.192"/>
<g id="SVGRepo_iconCarrier"> <path d="M8 10C9.10457 10 10 9.10457 10 8C10 6.89543 9.10457 6 8 6C6.89543 6 6 6.89543 6 8C6 9.10457 6.89543 10 8 10Z" fill="#a3a3a3"/> <path fill-rule="evenodd" clip-rule="evenodd" d="M2 5C2 3.34315 3.34315 2 5 2H19C20.6569 2 22 3.34315 22 5V19C22 20.6569 20.6569 22 19 22H5C3.34315 22 2 20.6569 2 19V5ZM5 4C4.44772 4 4 4.44772 4 5V17.5857L9.29285 12.2928C9.68337 11.9023 10.3165 11.9023 10.7071 12.2928L12.5 14.0857L20 6.58569V5C20 4.44772 19.5523 4 19 4H5ZM20 9.41412L13.2071 16.2071C12.8165 16.5976 12.1834 16.5976 11.7928 16.2071L9.99995 14.4142L4.5308 19.8833C4.67072 19.9578 4.83043 20 5 20H19C19.5523 20 20 19.5523 20 19V9.41412Z" fill="#a3a3a3"/> </g>
</svg>